<?xml version="1.0" encoding="UTF-8" standalone="no"?>
<!DOCTYPE svg PUBLIC "-//W3C//DTD SVG 1.1//EN"
 "http://www.w3.org/Graphics/SVG/1.1/DTD/svg11.dtd">
<!-- Generated by graphviz version 13.1.0 (20250701.0955)
 -->
<!-- Title: aht20_basic_init Pages: 1 -->
<svg width="261pt" height="304pt"
 viewBox="0.00 0.00 261.00 304.00" xmlns="http://www.w3.org/2000/svg" xmlns:xlink="http://www.w3.org/1999/xlink">
<g id="graph0" class="graph" transform="scale(1 1) rotate(0) translate(4 300)">
<title>aht20_basic_init</title>
<!-- Node1 -->
<g id="Node000001" class="node">
<title>Node1</title>
<g id="a_Node000001"><a xlink:title="basic example init">
<polygon fill="#999999" stroke="#666666" points="86.5,-164 0,-164 0,-144 86.5,-144 86.5,-164"/>
<text xml:space="preserve" text-anchor="middle" x="43.25" y="-150.5" font-family="Helvetica,sans-Serif" font-size="10.00">aht20_basic_init</text>
</a>
</g>
</g>
<!-- Node2 -->
<g id="Node000002" class="node">
<title>Node2</title>
<g id="a_Node000002"><a xlink:href="group__aht20__base__driver.html#ga605b93982da66f6e9ef6b03b821cab4b" target="_top" xlink:title="initialize the chip">
<polygon fill="white" stroke="#666666" points="216.5,-296 158.5,-296 158.5,-276 216.5,-276 216.5,-296"/>
<text xml:space="preserve" text-anchor="middle" x="187.5" y="-282.5" font-family="Helvetica,sans-Serif" font-size="10.00">aht20_init</text>
</a>
</g>
</g>
<!-- Node1&#45;&gt;Node2 -->
<g id="edge1_Node000001_Node000002" class="edge">
<title>Node1&#45;&gt;Node2</title>
<g id="a_edge1_Node000001_Node000002"><a xlink:title=" ">
<path fill="none" stroke="#63b8ff" d="M48.44,-164.17C58.09,-186.31 84.04,-239.14 122.5,-267 129.83,-272.31 138.63,-276.14 147.34,-278.91"/>
<polygon fill="#63b8ff" stroke="#63b8ff" points="146.16,-282.22 156.73,-281.48 148.01,-275.47 146.16,-282.22"/>
</a>
</g>
</g>
<!-- Node3 -->
<g id="Node000003" class="node">
<title>Node3</title>
<g id="a_Node000003"><a xlink:href="group__aht20__interface__driver.html#gac9fceb42c7c606a99d42cb79126d473f" target="_top" xlink:title="interface print format data">
<polygon fill="white" stroke="#666666" points="244.62,-258 130.38,-258 130.38,-226 244.62,-226 244.62,-258"/>
<text xml:space="preserve" text-anchor="start" x="138.38" y="-244.5" font-family="Helvetica,sans-Serif" font-size="10.00">aht20_interface_debug</text>
<text xml:space="preserve" text-anchor="middle" x="187.5" y="-232.5" font-family="Helvetica,sans-Serif" font-size="10.00">_print</text>
</a>
</g>
</g>
<!-- Node1&#45;&gt;Node3 -->
<g id="edge2_Node000001_Node000003" class="edge">
<title>Node1&#45;&gt;Node3</title>
<g id="a_edge2_Node000001_Node000003"><a xlink:title=" ">
<path fill="none" stroke="#63b8ff" d="M54.86,-164.33C69.22,-177.88 96.09,-201.7 122.5,-217 124.68,-218.26 126.94,-219.49 129.24,-220.67"/>
<polygon fill="#63b8ff" stroke="#63b8ff" points="127.67,-223.8 138.21,-224.95 130.69,-217.48 127.67,-223.8"/>
</a>
</g>
</g>
<!-- Node4 -->
<g id="Node000004" class="node">
<title>Node4</title>
<g id="a_Node000004"><a xlink:href="group__aht20__interface__driver.html#gaebce5e9d1a420405cd5bf8bc5d31caeb" target="_top" xlink:title="interface delay ms">
<polygon fill="white" stroke="#666666" points="252.5,-208 122.5,-208 122.5,-188 252.5,-188 252.5,-208"/>
<text xml:space="preserve" text-anchor="middle" x="187.5" y="-194.5" font-family="Helvetica,sans-Serif" font-size="10.00">aht20_interface_delay_ms</text>
</a>
</g>
</g>
<!-- Node1&#45;&gt;Node4 -->
<g id="edge3_Node000001_Node000004" class="edge">
<title>Node1&#45;&gt;Node4</title>
<g id="a_edge3_Node000001_Node000004"><a xlink:title=" ">
<path fill="none" stroke="#63b8ff" d="M76.56,-164.49C90.65,-169.02 107.37,-174.34 122.5,-179 128.25,-180.77 134.29,-182.6 140.28,-184.4"/>
<polygon fill="#63b8ff" stroke="#63b8ff" points="138.88,-187.64 149.47,-187.14 140.88,-180.93 138.88,-187.64"/>
</a>
</g>
</g>
<!-- Node5 -->
<g id="Node000005" class="node">
<title>Node5</title>
<g id="a_Node000005"><a xlink:href="group__aht20__interface__driver.html#gae3abcb9f6145093eb041335d86b74abb" target="_top" xlink:title="interface iic bus deinit">
<polygon fill="white" stroke="#666666" points="236.38,-170 138.62,-170 138.62,-138 236.38,-138 236.38,-170"/>
<text xml:space="preserve" text-anchor="start" x="146.62" y="-156.5" font-family="Helvetica,sans-Serif" font-size="10.00">aht20_interface_iic</text>
<text xml:space="preserve" text-anchor="middle" x="187.5" y="-144.5" font-family="Helvetica,sans-Serif" font-size="10.00">_deinit</text>
</a>
</g>
</g>
<!-- Node1&#45;&gt;Node5 -->
<g id="edge4_Node000001_Node000005" class="edge">
<title>Node1&#45;&gt;Node5</title>
<g id="a_edge4_Node000001_Node000005"><a xlink:title=" ">
<path fill="none" stroke="#63b8ff" d="M86.93,-154C99.59,-154 113.69,-154 127.2,-154"/>
<polygon fill="#63b8ff" stroke="#63b8ff" points="126.86,-157.5 136.85,-154 126.85,-150.5 126.86,-157.5"/>
</a>
</g>
</g>
<!-- Node6 -->
<g id="Node000006" class="node">
<title>Node6</title>
<g id="a_Node000006"><a xlink:href="group__aht20__interface__driver.html#ga69610e52b615402148ca2213aa401885" target="_top" xlink:title="interface iic bus init">
<polygon fill="white" stroke="#666666" points="245.38,-120 129.62,-120 129.62,-100 245.38,-100 245.38,-120"/>
<text xml:space="preserve" text-anchor="middle" x="187.5" y="-106.5" font-family="Helvetica,sans-Serif" font-size="10.00">aht20_interface_iic_init</text>
</a>
</g>
</g>
<!-- Node1&#45;&gt;Node6 -->
<g id="edge5_Node000001_Node000006" class="edge">
<title>Node1&#45;&gt;Node6</title>
<g id="a_edge5_Node000001_Node000006"><a xlink:title=" ">
<path fill="none" stroke="#63b8ff" d="M76.56,-143.51C90.65,-138.98 107.37,-133.66 122.5,-129 128.25,-127.23 134.29,-125.4 140.28,-123.6"/>
<polygon fill="#63b8ff" stroke="#63b8ff" points="140.88,-127.07 149.47,-120.86 138.88,-120.36 140.88,-127.07"/>
</a>
</g>
</g>
<!-- Node7 -->
<g id="Node000007" class="node">
<title>Node7</title>
<g id="a_Node000007"><a xlink:href="group__aht20__interface__driver.html#ga6f36a66057ee0ac5ea73cd0a706dd5b5" target="_top" xlink:title="interface iic bus read">
<polygon fill="white" stroke="#666666" points="236.38,-82 138.62,-82 138.62,-50 236.38,-50 236.38,-82"/>
<text xml:space="preserve" text-anchor="start" x="146.62" y="-68.5" font-family="Helvetica,sans-Serif" font-size="10.00">aht20_interface_iic</text>
<text xml:space="preserve" text-anchor="middle" x="187.5" y="-56.5" font-family="Helvetica,sans-Serif" font-size="10.00">_read_cmd</text>
</a>
</g>
</g>
<!-- Node1&#45;&gt;Node7 -->
<g id="edge6_Node000001_Node000007" class="edge">
<title>Node1&#45;&gt;Node7</title>
<g id="a_edge6_Node000001_Node000007"><a xlink:title=" ">
<path fill="none" stroke="#63b8ff" d="M54.86,-143.67C69.22,-130.12 96.09,-106.3 122.5,-91 124.68,-89.74 126.94,-88.51 129.24,-87.33"/>
<polygon fill="#63b8ff" stroke="#63b8ff" points="130.69,-90.52 138.21,-83.05 127.67,-84.2 130.69,-90.52"/>
</a>
</g>
</g>
<!-- Node8 -->
<g id="Node000008" class="node">
<title>Node8</title>
<g id="a_Node000008"><a xlink:href="group__aht20__interface__driver.html#ga553cfa62b7ad68a3605fbc89b15613a9" target="_top" xlink:title="interface iic bus write">
<polygon fill="white" stroke="#666666" points="236.38,-32 138.62,-32 138.62,0 236.38,0 236.38,-32"/>
<text xml:space="preserve" text-anchor="start" x="146.62" y="-18.5" font-family="Helvetica,sans-Serif" font-size="10.00">aht20_interface_iic</text>
<text xml:space="preserve" text-anchor="middle" x="187.5" y="-6.5" font-family="Helvetica,sans-Serif" font-size="10.00">_write_cmd</text>
</a>
</g>
</g>
<!-- Node1&#45;&gt;Node8 -->
<g id="edge7_Node000001_Node000008" class="edge">
<title>Node1&#45;&gt;Node8</title>
<g id="a_edge7_Node000001_Node000008"><a xlink:title=" ">
<path fill="none" stroke="#63b8ff" d="M48.77,-143.74C58.89,-121.87 85.43,-70.29 122.5,-41 124.44,-39.47 126.48,-38.02 128.6,-36.65"/>
<polygon fill="#63b8ff" stroke="#63b8ff" points="130,-39.88 136.97,-31.91 126.55,-33.79 130,-39.88"/>
</a>
</g>
</g>
</g>
</svg>
